HIERARCHY
ROOT Hips
{
	OFFSET -3.958830 18.904000 13.208200
	CHANNELS 6 Xposition Yposition Zposition Zrotation Yrotation Xrotation 
	JOINT LHipJoint
	{
		OFFSET 0.000000 0.000000 0.000000
		CHANNELS 3 Zrotation Yrotation Xrotation
		JOINT LeftUpLeg
		{
			OFFSET 1.800000 -1.400000 0.085000
			CHANNELS 3 Zrotation Yrotation Xrotation
			JOINT LeftLeg
			{
				OFFSET 2.215000 -6.000000 0.000000
				CHANNELS 3 Zrotation Yrotation Xrotation
				JOINT LeftFoot
				{
					OFFSET 2.500000 -6.900000 0.000000
					CHANNELS 3 Zrotation Yrotation Xrotation
					JOINT LeftToeBase
					{
						OFFSET 0.200000 -0.500000 1.950000
						CHANNELS 3 Zrotation Yrotation Xrotation
						End Site
						{
							OFFSET 0.000000 0.000000 0.000000
						}
					}
				}
			}
		}
	}
	JOINT RHipJoint
	{
		OFFSET 0.000000 0.000000 0.000000
		CHANNELS 3 Zrotation Yrotation Xrotation
		JOINT RightUpLeg
		{
			OFFSET -1.800000 -1.400000 0.085000
			CHANNELS 3 Zrotation Yrotation Xrotation
			JOINT RightLeg
			{
				OFFSET -2.215000 -6.000000 0.000000
				CHANNELS 3 Zrotation Yrotation Xrotation
				JOINT RightFoot
				{
					OFFSET -2.500000 -6.900000 0.000000
					CHANNELS 3 Zrotation Yrotation Xrotation
					JOINT RightToeBase
					{
						OFFSET -0.200000 -0.500000 1.950000
						CHANNELS 3 Zrotation Yrotation Xrotation
						End Site
						{
							OFFSET 0.000000 0.000000 0.000000
						}
					}
				}
			}
		}
	}
	JOINT LowerBack
	{
		OFFSET 0.000000 0.000000 0.000000
		CHANNELS 3 Zrotation Yrotation Xrotation
		JOINT Spine
		{
			OFFSET -0.087000 1.940000 -0.288900
			CHANNELS 3 Zrotation Yrotation Xrotation
			JOINT Spine1
			{
				OFFSET 0.000000 1.950000 0.060000
				CHANNELS 3 Zrotation Yrotation Xrotation
				JOINT Neck
				{
					OFFSET 0.000000 0.000000 0.000000
					CHANNELS 3 Zrotation Yrotation Xrotation
					JOINT Neck1
					{
						OFFSET 0.000000 1.600000 0.340000
						CHANNELS 3 Zrotation Yrotation Xrotation
						JOINT Head
						{
							OFFSET 0.000000 1.667000 -0.240000
							CHANNELS 3 Zrotation Yrotation Xrotation
							End Site
							{
								OFFSET 0.000000 0.000000 0.000000
							}
						}
					}
				}
				JOINT LeftShoulder
				{
					OFFSET 0.000000 0.000000 0.000000
					CHANNELS 3 Zrotation Yrotation Xrotation
					JOINT LeftArm
					{
						OFFSET 2.700000 1.550000 -0.730000
						CHANNELS 3 Zrotation Yrotation Xrotation
						JOINT LeftForeArm
						{
							OFFSET 5.450000 0.000000 0.000000
							CHANNELS 3 Zrotation Yrotation Xrotation
							JOINT LeftHand
							{
								OFFSET 3.450000 0.000000 0.000000
								CHANNELS 3 Zrotation Yrotation Xrotation
								JOINT LeftHandIndex1
								{
									OFFSET 0.750000 0.000000 0.000000
									CHANNELS 3 Zrotation Yrotation Xrotation
									End Site
									{
										OFFSET 0.000000 0.000000 0.000000
									}
								}
							}
						}
					}
				}
				JOINT RightShoulder
				{
					OFFSET 0.000000 0.000000 0.000000
					CHANNELS 3 Zrotation Yrotation Xrotation
					JOINT RightArm
					{
						OFFSET -2.700000 1.550000 -0.730000
						CHANNELS 3 Zrotation Yrotation Xrotation
						JOINT RightForeArm
						{
							OFFSET -5.450000 0.000000 0.000000
							CHANNELS 3 Zrotation Yrotation Xrotation
							JOINT RightHand
							{
								OFFSET -3.450000 0.000000 0.000000
								CHANNELS 3 Zrotation Yrotation Xrotation
								JOINT RightHandIndex1
								{
									OFFSET -0.750000 0.000000 0.000000
									CHANNELS 3 Zrotation Yrotation Xrotation
									End Site
									{
										OFFSET 0.000000 0.000000 0.000000
									}
								}
							}
						}
					}
				}
			}
		}
	}
}
MOTION
Frames: 7
Frame Time: 0.016667
4.815540 16.229280 -3.104330 3.262140 1.103650 7.283030 -15.147575 13.343121 2.008353 20.018480 -1.883848 -17.452218 0.261939 6.258077 21.704978 -0.200638 4.761737 2.721036 0.108610 0.018050 0.311640 18.510908 -8.681231 4.871243 -21.030525 6.704734 -47.091864 16.864146 -15.031228 42.601215 -0.745148 -7.597862 1.502287 0.056310 -0.011400 0.145060 -3.930029 -3.870636 -8.130635 15.018074 -10.034404 27.092950 -4.597595 -6.558629 6.363614 0.971759 -10.726326 -12.505541 -24.232466 18.294472 25.921067 -16.234530 20.077380 -8.828620 -12.016374 -12.597186 5.763776 5.003281 -4.643463 -0.264267 6.184859 -4.440826 -0.185304 -3.949796 2.970310 0.169170 0.149790 0.058300 -0.060990 10.953861 17.461974 6.518880 15.127771 6.140800 -8.808583 -22.260360 45.566813 -6.686746 2.054412 -1.375156 -0.108480 0.002340 -0.000290 -0.218920 
4.892360 16.077420 -3.122430 2.860578 0.999053 7.144073 -15.171794 13.251474 1.877726 21.366904 -1.660122 -17.144428 1.461648 5.973881 21.065410 -0.186160 4.701848 2.738276 0.114920 0.024610 0.306790 18.544329 -8.393209 5.172310 -23.158938 6.979659 -49.262814 18.425380 -17.055938 45.655879 -0.938541 -8.435325 1.242121 0.049690 -0.022780 0.143890 -3.932426 -3.985829 -8.250894 15.813514 -10.825924 28.198761 -4.507018 -6.931137 5.803596 1.300633 -11.198475 -13.144745 -25.454175 18.676410 25.116234 -16.399500 19.957320 -9.167130 -13.276847 -13.860362 6.704249 4.580661 -3.671647 0.102668 3.983495 1.285653 -0.354137 -3.969262 2.922042 0.177420 0.130350 0.069320 -0.055240 11.785868 19.091321 6.572363 13.334051 6.990096 -9.153628 -24.546509 45.873444 -7.562803 2.054986 -1.349140 -0.096970 0.000090 -0.004510 -0.210910 
4.954360 15.929130 -3.154970 2.356703 1.097172 6.661294 -15.216665 13.194978 1.787504 22.769799 -1.457119 -17.176999 2.441718 6.057511 22.209421 -0.160854 4.875268 2.654569 0.125670 0.033140 0.318450 18.552253 -8.096375 5.440999 -25.215376 7.197828 -50.840484 20.701874 -19.267194 47.956811 -1.141677 -9.216333 1.005793 0.046560 -0.052210 0.139900 -3.871267 -4.181416 -8.395978 16.103097 -11.512656 30.005691 -4.105157 -7.319181 5.263925 1.656111 -11.430150 -13.583100 -26.077453 19.030167 24.925221 -16.922030 19.954590 -10.037770 -14.752067 -15.005720 7.548853 4.097547 -2.269022 0.231872 3.367903 4.910721 -0.539580 -3.973054 2.878231 0.198990 0.103620 0.087890 -0.061920 12.709608 20.557426 6.359845 11.663284 8.376382 -9.678948 -28.106041 46.373975 -9.029367 2.047675 -1.306567 -0.089260 -0.003880 -0.007310 -0.216980 
5.003540 15.802470 -3.193480 2.014252 0.807013 6.314224 -15.244835 13.130564 1.713948 23.435744 -1.324858 -17.516375 3.075291 6.314322 24.356457 -0.119157 5.132843 2.552279 0.119720 0.015960 0.327220 18.570614 -7.858979 5.700305 -27.008299 7.472938 -52.558939 22.321579 -20.923596 49.782331 -1.296673 -9.788517 0.846659 0.025960 -0.075690 0.131230 -3.848343 -4.255620 -8.526452 16.296249 -12.144501 32.035546 -4.456105 -7.558089 4.429916 2.214706 -11.640686 -14.017932 -26.426749 18.918054 24.590458 -17.908130 19.661760 -10.825750 -16.643716 -16.123687 8.377869 4.138291 0.277209 0.167150 4.683039 6.177822 -0.502252 -3.955420 2.844209 0.220430 0.076840 0.101810 -0.068980 13.581278 22.185905 6.163657 10.932023 9.761495 -10.528170 -31.711382 48.890375 -11.120968 2.020743 -1.237407 -0.087670 -0.001990 -0.007450 -0.221760 
5.031540 15.727180 -3.221530 2.067695 0.728056 5.941288 -15.255311 13.101794 1.689803 23.385793 -1.324973 -17.897377 3.192532 6.539893 26.033815 -0.090291 5.321089 2.483007 0.119660 0.008230 0.329380 18.582444 -7.747354 5.827516 -27.956714 7.600902 -53.565093 22.440532 -21.697138 51.424635 -1.383432 -10.126528 0.752951 0.016280 -0.089560 0.128280 -3.842976 -4.283710 -8.601094 16.128723 -12.851157 34.032717 -5.015799 -8.029039 3.244509 2.565611 -11.714545 -14.223256 -26.398179 18.938078 24.146405 -18.463440 19.395170 -11.356650 -19.069475 -17.480974 9.010711 5.350208 2.413686 0.239282 3.995567 7.463568 -0.632599 -3.920940 2.816109 0.232690 0.060060 0.108840 -0.068710 15.323798 23.775113 5.823049 10.188205 11.195496 -11.278242 -33.271596 52.733100 -12.895992 1.992620 -1.179536 -0.085730 -0.004670 -0.010540 -0.222680 
5.036080 15.688210 -3.239340 2.090501 0.732536 5.770414 -15.269207 13.074002 1.725631 23.297797 -1.394750 -18.987669 3.563277 6.745720 28.286523 -0.053164 5.552517 2.388545 0.120470 0.005800 0.332700 18.584909 -7.675006 5.889307 -28.048941 7.948764 -54.349765 21.747486 -21.896325 52.942038 -1.430843 -10.308230 0.704763 0.007190 -0.111030 0.123710 -3.823970 -4.297107 -8.676938 15.835249 -13.280849 35.521480 -5.442142 -8.253935 2.391009 2.933570 -11.582501 -14.448101 -25.920697 18.550752 24.386524 -18.938510 18.924760 -11.714310 -21.148142 -18.641639 9.567406 5.092985 3.441419 0.262598 4.575215 8.333902 -0.598705 -3.910693 2.789839 0.240330 0.042000 0.117390 -0.072430 16.606259 25.183673 5.559543 10.338613 12.879026 -11.820258 -35.206864 54.910837 -14.539253 1.972435 -1.120638 -0.078170 -0.012930 -0.015060 -0.223650 
5.024410 15.698270 -3.239780 2.231173 0.458224 5.713539 -15.251115 13.080578 1.741403 23.137975 -1.370391 -19.090484 3.547410 6.763926 28.499941 -0.029154 5.552870 2.389046 0.119350 0.002040 0.326310 18.591075 -7.719906 5.891833 -27.659894 8.330610 -54.432099 21.050567 -21.500441 53.351015 -1.418112 -10.257001 0.722489 -0.004910 -0.118890 0.124880 -3.855716 -4.198176 -8.704770 15.695807 -13.475894 36.028961 -6.156479 -8.322973 2.071903 3.205762 -11.402110 -14.639700 -25.532740 17.874512 25.534928 -18.778230 18.103520 -11.025640 -22.761736 -19.707233 9.995289 4.115588 3.880621 0.358205 4.739473 6.485533 -0.482999 -3.855681 2.828941 0.233480 0.032220 0.120190 -0.069190 17.527716 26.513716 5.346156 10.801792 14.706145 -12.048933 -33.607194 57.154978 -14.549101 1.972975 -1.102183 -0.062980 -0.022960 -0.019210 -0.213120 
